<svg width="390" height="520" viewBox="0 0 390 520" fill="none" xmlns="http://www.w3.org/2000/svg">
<path d="M57.9574 100.477V105.719H34.6484V103.604C34.6484 91.2795 50.3329 90.0835 50.3329 82.1275C50.3329 79.599 48.7502 78 46.1502 78C42.9847 78 41.4962 80.4863 42.0227 84.3473H35.1262C34.0244 77.7238 38.5322 72.8488 46.1762 72.8488C53.3262 72.8488 57.8307 76.622 57.8307 82.4168C57.8307 92.7648 43.1537 95.3388 42.2892 100.49L57.9574 100.477Z" fill="white"/>
<path d="M62.3677 89.6253C62.3677 80.0573 66.8299 72.8358 76.1347 72.8358C85.4394 72.8358 89.8984 80.0573 89.8984 89.6253C89.8984 99.1933 85.4394 106.408 76.1347 106.408C66.8299 106.408 62.3677 99.19 62.3677 89.6253ZM82.0334 89.4855C82.0334 81.4385 79.9697 78.0813 76.1347 78.0813C72.2997 78.0813 70.2359 81.4385 70.2359 89.4855C70.2359 97.7178 72.2964 101.166 76.1347 101.166C79.9729 101.166 82.0334 97.7178 82.0334 89.4855Z" fill="white"/>
<path d="M117.283 100.477V105.719H93.9736V103.604C93.9736 91.2795 109.658 90.0835 109.658 82.1275C109.658 79.599 108.075 77.987 105.485 77.987C102.32 77.987 100.834 80.4733 101.361 84.3343H94.4546C93.3496 77.7108 97.8606 72.8358 105.485 72.8358C112.635 72.8358 117.14 76.609 117.14 82.4038C117.14 92.7518 102.463 95.3258 101.601 100.477H117.283Z" fill="white"/>
<path d="M144.573 95.8328C144.573 102.086 139.298 106.408 132.343 106.408C126.204 106.408 121.79 103.604 120.643 99.19L126.877 96.525C127.354 99.4695 129.129 101.263 132.151 101.263C135.174 101.263 137.234 99.0535 137.234 95.836C137.234 92.5698 135.076 90.4995 131.862 90.4995C129.467 90.4995 127.692 91.6955 126.587 93.5805L121.504 91.5135L122.99 73.5312H142.558V78.7735H129.025L128.258 86.3623C129.649 85.579 131.375 85.2118 133.292 85.2118C139.825 85.2085 144.573 89.5765 144.573 95.8328Z" fill="white"/>
<path d="M145 110H35V112H145V110Z" fill="white"/>
<path d="M38.3306 132.116H46.0266V159.159H59.4556V164.756H38.3306V132.116Z" fill="white"/>
<path d="M66.2153 132.116H86.7748V137.338H73.7748V145.405H84.4511V150.579H73.7748V159.299H86.7748V164.756H66.2153V132.116Z" fill="white"/>
<path d="M101.091 150.673C96.0535 148.528 93.7233 145.545 93.7233 140.881C93.7233 135.054 98.1075 131.417 104.634 131.417C111.816 131.417 115.778 135.987 115.173 142.233H108.459C108.599 138.736 107.62 136.64 104.263 136.64C102.024 136.64 100.483 138.037 100.483 140.182C100.483 142.187 101.458 143.306 104.634 144.657L106.909 145.632C113.763 148.557 115.684 151.32 115.684 155.889C115.684 161.486 111.299 165.448 104.679 165.448C98.4293 165.448 94.0938 162.276 92.979 157.476L99.3653 154.632C99.8788 157.95 101.51 160.225 104.868 160.225C107.432 160.225 108.924 158.827 108.924 156.494C108.924 154.632 107.572 153.465 104.699 152.204L101.091 150.673Z" fill="white"/>
<path d="M130.234 150.767C124.683 148.388 122.434 145.59 122.434 140.835C122.434 135.239 126.769 131.41 133.016 131.41C138.333 131.41 142.295 133.88 143.461 139.288L137.355 141.713C137.03 138.463 135.629 136.633 132.876 136.633C130.601 136.633 129.194 138.076 129.194 140.13C129.194 141.996 130.169 143.253 133.11 144.466L135.674 145.538C141.596 148.008 144.254 150.806 144.254 155.844C144.254 161.252 140.432 165.448 133.156 165.448C125.879 165.448 121.267 161.063 121.781 154.303H128.446C128.274 157.625 130 160.225 133.403 160.225C135.876 160.225 137.507 158.827 137.507 156.448C137.507 154.443 136.341 153.371 133.169 152.019L130.234 150.767Z" fill="white"/>
<path d="M221.861 156.088C220.831 158.922 219.199 161.967 217.526 163.855C216.476 162.986 215.373 162.183 214.224 161.45C215.849 159.825 217.149 157.375 217.912 155.103L221.861 156.088ZM227.48 153.943V163.124C227.48 165.184 227.136 166.257 225.855 166.985C224.575 167.713 222.852 167.716 220.581 167.716C220.318 166.271 219.855 164.87 219.206 163.553C220.506 163.595 221.806 163.595 222.297 163.595C222.787 163.595 222.895 163.468 222.895 162.997V153.943H214.997V149.653H222.888V146.351H214.737V142.148H218.943C218.69 140.614 218.254 139.116 217.643 137.686L221.172 136.825H215.381V132.665H222.719C222.332 131.508 221.861 130.305 221.419 129.278L225.969 128.206C226.668 129.657 227.288 131.146 227.825 132.665H234.604V136.825H229.196L232.7 137.514C232.014 139.139 231.4 140.816 230.769 142.148H235.232V146.351H227.48V149.653H234.559V153.943H227.48ZM221.773 136.825C222.489 138.333 222.981 139.937 223.233 141.586L221.172 142.145H226.236C226.952 140.409 227.569 138.632 228.082 136.825H221.773ZM254.377 147.251H250.386V168.314H245.411V147.251H241.208V147.55C241.208 153.855 240.649 162.607 236.961 167.97C235.798 166.79 234.487 165.766 233.061 164.924C233.901 163.658 234.538 162.267 234.949 160.803L231.559 162.948C230.604 160.724 229.485 158.573 228.212 156.513L231.559 154.671C232.833 156.608 233.974 158.63 234.975 160.722C236.304 156.517 236.434 151.671 236.434 147.553V132.496C241.15 131.638 246.343 130.305 249.434 128.849L253.38 132.58C249.821 133.952 245.401 135.024 241.199 135.798V142.532H254.377V147.251Z" fill="white"/>
<path d="M281.658 156.39V143.65H275.824V161.236H302.552V166.169H270.504V143.65H264.712V138.716H270.504V129.675H275.824V138.729H281.658V128.762H286.721V138.716H292.643V129.148H298.002V138.716H303.667V143.65H298.002V156.39H281.658ZM286.721 143.65V151.713H292.643V143.65H286.721Z" fill="white"/>
<path d="M325.585 144.625C327.086 146.25 330.733 150.673 331.591 151.746L328.666 155.909C327.725 154.085 326.694 152.309 325.575 150.589V168.435H320.7V151.499C319.329 155.275 317.697 158.792 315.854 161.151C315.383 159.692 314.265 157.635 313.453 156.348C316.241 152.958 318.727 147.124 320.102 142.019H314.577V137.215H320.71V128.421H325.585V137.215H330.947V142.025H325.585V144.625ZM352.56 130.725V167.843H347.425V165.656H337.35V168.1H332.459V130.725H352.56ZM337.35 135.541V140.862H347.425V135.541H337.35ZM337.35 145.451V150.897H347.425V145.451H337.35ZM347.425 161.021V155.532H337.35V161.021H347.425Z" fill="white"/>
<path d="M35 172V170H149V172H35Z" fill="white"/>
<path d="M149 172V170H213V172H149Z" fill="white"/>
<path d="M213 172V170H355V172H213Z" fill="white"/>
<path d="M73.5541 209.508V228.127H67.8048V225.81H38.3501V209.56H44.0993V220.756H53.1083V207.279H40.6251V191.705H46.0298V202.345H53.1083V188.104H58.7698V202.345H66.1473V191.705H71.8121V207.279H58.7536V220.75H67.8048V209.508H73.5541Z" fill="white"/>
<path d="M101.309 208.65V228.043H96.6745V213.155H92.7745C92.43 218.732 91.4452 224.351 89.0857 228.384C88.008 227.204 86.8098 226.14 85.5107 225.209C88.0002 220.009 88.2992 211.825 88.2992 205.777V189.218H92.976V199.384H95.901V188.104H100.493V199.384H103.454V203.889H92.9857V205.777C92.9857 206.677 92.9858 207.665 92.9435 208.65H101.309ZM124.858 200.499C124.043 208.007 122.242 214.012 119.541 218.699C121.265 220.978 123.44 222.877 125.931 224.276C124.6 225.465 123.444 226.837 122.499 228.352C120.243 226.854 118.256 224.986 116.623 222.827C114.722 225.052 112.443 226.922 109.889 228.352C109.13 226.994 108.238 225.715 107.227 224.533C106.756 225.959 106.122 227.327 105.339 228.608C104.11 227.512 102.758 226.562 101.309 225.778C104.439 220.116 104.825 211.153 104.825 205.059V190.678C111.088 190.249 118.037 189.378 122.7 188.318L125.531 192.777C120.9 193.807 115.108 194.451 109.662 194.795V199.901H120.997L121.813 199.729L124.858 200.499ZM113.877 218.345C112.076 214.913 110.747 210.967 109.674 206.677C109.587 212.082 109.158 218.517 107.442 223.837C109.931 222.55 112.034 220.675 113.877 218.345ZM113.149 204.532C113.933 207.778 115.068 210.928 116.535 213.928C117.951 210.939 118.981 207.782 119.6 204.532H113.149Z" fill="white"/>
<path d="M145.018 203.375C142.532 204.919 139.916 206.42 137.725 207.707L135.626 203.245C138.028 202.13 141.502 200.32 145.018 198.484V188.104H149.952V209.95H145.018V203.375ZM159.175 216.843C162.052 220.919 167.583 222.849 175.75 223.366C174.636 224.439 173.349 226.541 172.747 227.871C164.47 226.97 159.149 224.439 155.633 219.463C153.075 223.623 148.2 226.496 138.242 228.085C137.681 226.524 136.853 225.073 135.795 223.795C145.22 222.55 149.266 220.275 151.197 216.843H136.438V212.384H152.614C152.74 211.568 152.87 210.71 152.955 209.852H158.275C158.191 210.71 158.061 211.568 157.931 212.384H174.619V216.843H159.175ZM139.958 198.741C139.399 196.982 137.855 194.236 136.438 192.263L140.215 190.203C141.716 192.091 143.39 194.708 144.034 196.469L139.958 198.741ZM175.435 192.949C172.133 203.46 163.735 207.964 153.01 209.849C152.365 208.295 151.466 206.86 150.348 205.601C153.497 205.244 156.593 204.522 159.575 203.45C158.366 202.007 157.077 200.632 155.714 199.332L159.361 197.145C160.901 198.474 162.348 199.908 163.693 201.435C165.89 200.041 167.727 198.148 169.055 195.91H158.704C157.068 197.433 155.27 198.771 153.342 199.901C152.424 198.58 151.406 197.332 150.296 196.167C153.943 194.236 157.547 190.892 159.175 187.973L164.024 189.559C163.595 190.248 163.079 190.976 162.565 191.662H171.532L172.39 191.536L175.435 192.949Z" fill="white"/>
<path d="M35 232V230H177V232H35Z" fill="white"/>
<path d="M296.137 41.8047L15.5088 21.9082" stroke="#B3B6B7" stroke-miterlimit="10"/>
<path d="M373.604 21.9082L296.137 41.8047" stroke="#B3B6B7" stroke-linecap="round" stroke-linejoin="round"/>
<path d="M373.539 21.9082V464.74L296.137 484.64L15.7495 464.74H15.7528L15.7495 21.9082" stroke="#B3B6B7" stroke-linecap="round" stroke-linejoin="round"/>
<path d="M92.979 279.9L373.604 260" stroke="#B3B6B7" stroke-miterlimit="10"/>
<path d="M15.5088 260L92.979 279.9" stroke="#B3B6B7" stroke-linecap="round" stroke-linejoin="round"/>
<path d="M203.496 338V340.073H193.746C193.156 341.332 192.443 342.53 191.617 343.648V352.462H189.413V346.125C188.912 346.589 188.376 347.015 187.811 347.399C187.507 346.675 187.148 345.975 186.735 345.306C188.646 344.068 190.177 342.157 191.269 340.06H187.324V338H192.241C192.566 337.142 192.826 336.307 193.044 335.468L195.319 336.014C195.12 336.687 194.883 337.343 194.626 338H203.496ZM199.124 350.025H203.45V352.03H192.533V350.025H196.95V345.875H193.242V343.87H196.95V340.847H199.134V343.87H202.742V345.875H199.134L199.124 350.025Z" fill="#B3B6B7"/>
<path d="M223.015 346.206C222.96 346.97 222.924 347.607 222.869 348.189H224.9V350.084H222.645C222.596 350.61 222.434 351.12 222.17 351.579C222 351.826 221.775 352.032 221.513 352.18C221.251 352.329 220.959 352.415 220.659 352.433C219.855 352.521 219.044 352.533 218.238 352.469C218.178 351.886 217.998 351.321 217.708 350.812C218.344 350.874 218.983 350.899 219.622 350.886C219.747 350.911 219.877 350.896 219.994 350.843C220.11 350.791 220.207 350.704 220.272 350.594C220.37 350.435 220.443 350.263 220.49 350.084H210.685C210.906 349.011 211.123 347.643 211.335 346.206H208.822V344.276H211.608C211.754 343.184 211.881 342.053 211.991 341.052C211.536 341.598 211.097 342.127 210.642 342.582C210.024 342.117 209.372 341.696 208.692 341.325C210.366 339.924 211.942 337.629 212.878 335.387L215.03 336.008C214.864 336.372 214.682 336.755 214.5 337.135H225.007V339.066H213.372C213.047 339.557 212.752 340.015 212.423 340.47H223.204C223.204 340.47 223.204 341.162 223.204 341.416C223.168 342.472 223.129 343.402 223.093 344.276H225.716V346.206H223.015ZM213.525 346.125C213.415 346.853 213.324 347.529 213.2 348.182H217.188C216.513 347.662 215.786 347.211 215.02 346.837L215.748 346.125H213.525ZM214.016 342.355C213.944 343.005 213.853 343.655 213.762 344.341H217.386C216.73 343.847 216.021 343.426 215.274 343.086L216.021 342.355H214.016ZM220.773 348.182C220.808 347.6 220.864 346.944 220.899 346.125H217.1C217.858 346.529 218.572 347.011 219.229 347.565L218.611 348.182H220.773ZM220.974 344.341C221.01 343.723 221.026 343.086 221.046 342.355H217.334C218.071 342.738 218.765 343.197 219.408 343.723L218.79 344.341H220.974Z" fill="#B3B6B7"/>
<path d="M247.449 342.634V344.984H230.75V342.634H247.449Z" fill="#B3B6B7"/>
<path d="M266.75 337.737C265.899 339.282 264.687 340.599 263.217 341.575C265.244 342.302 267.355 342.767 269.5 342.96C268.985 343.539 268.556 344.189 268.226 344.89C265.741 344.594 263.319 343.906 261.05 342.852C258.775 343.961 256.097 344.672 253.367 345.108C253.131 344.424 252.803 343.776 252.392 343.18C254.638 342.936 256.842 342.397 258.947 341.575C258.275 341.113 257.653 340.582 257.091 339.992C256.295 340.605 255.448 341.149 254.559 341.617C254.134 341.014 253.625 340.475 253.048 340.015C255.707 338.812 257.455 337.09 258.385 335.465L260.767 335.901C260.549 336.248 260.296 336.612 260.039 336.957H264.914L265.297 336.866L266.75 337.737ZM258.482 348.371C257.39 349.75 256.072 350.932 254.582 351.868C254.165 351.308 253.689 350.795 253.162 350.337C254.518 349.653 255.744 348.736 256.782 347.627L258.482 348.371ZM262.015 347.315V350.337C262.015 351.312 261.833 351.812 261.16 352.124C260.487 352.436 259.629 352.449 258.466 352.449C258.343 351.794 258.134 351.159 257.845 350.558C258.495 350.558 259.285 350.558 259.503 350.558C259.72 350.558 259.811 350.487 259.811 350.285V347.298H254.475V345.475H259.811V344.019H262.015V345.475H267.641V347.331L262.015 347.315ZM258.557 338.793C259.285 339.509 260.112 340.117 261.014 340.597C261.88 340.121 262.666 339.512 263.344 338.793H258.557ZM264.764 347.643C265.947 348.553 267.407 349.866 268.099 350.831L266.474 352.05C265.531 350.821 264.449 349.705 263.25 348.725L264.764 347.643Z" fill="#B3B6B7"/>
<path d="M279.367 340.304C278.717 343.073 277.742 346.496 276.162 348.537C275.51 348.086 274.822 347.69 274.105 347.354C275.597 345.495 276.507 342.29 276.91 339.879L279.367 340.304ZM284.011 335.725V349.746C284.011 351.075 283.718 351.695 282.899 352.04C282.08 352.384 280.823 352.459 279.058 352.459C278.882 351.661 278.6 350.889 278.219 350.165C279.402 350.22 280.715 350.22 281.115 350.22C281.515 350.22 281.661 350.093 281.661 349.729V335.725H284.011ZM288.09 339.657C289.575 342.225 291.041 345.475 291.496 347.75L289.165 348.725C288.801 346.541 287.417 343.135 285.997 340.512L288.09 339.657Z" fill="#B3B6B7"/>
<path d="M312.198 337.72C311.69 339.506 310.829 341.171 309.667 342.618C310.788 343.519 312.066 344.204 313.437 344.64C312.907 345.183 312.453 345.795 312.088 346.46L312.052 346.44V352.398H309.975V351.832H306.553V352.449H304.551V346.531L304.132 346.716C303.939 346.35 303.713 346.002 303.456 345.676V346.206H301.454V348.627L303.602 348.137L303.804 350.048C301.252 350.698 298.487 351.322 296.426 351.796L296.046 349.72L296.865 349.573V343.457H298.633V349.209L299.543 349.027V342.179H296.992V336.154H303.274V340.668C304.695 339.21 305.733 337.424 306.296 335.468L308.357 335.979C308.211 336.382 308.064 336.798 307.899 337.201H310.45L310.833 337.126L312.198 337.72ZM298.873 340.32H301.278V338H298.854L298.873 340.32ZM303.443 344.87C304.723 344.313 305.899 343.544 306.924 342.595C306.509 342.089 306.132 341.553 305.793 340.993C305.459 341.433 305.099 341.853 304.717 342.251C304.272 341.793 303.784 341.379 303.261 341.013V342.176H301.441V344.308H303.443V344.87ZM310.564 345.725C309.751 345.251 308.989 344.696 308.289 344.068C307.598 344.692 306.848 345.247 306.049 345.725H310.564ZM309.962 349.95V347.529H306.553V349.95H309.962ZM307.015 339.027L306.868 339.3C307.263 339.958 307.707 340.585 308.198 341.175C308.718 340.51 309.164 339.789 309.527 339.027H307.015Z" fill="#B3B6B7"/>
<path d="M334.705 349.411V351.595H318.24V349.411H324.74V335.699H327.07V340.925H333.515V343.109H327.07V349.411H334.705Z" fill="#B3B6B7"/>
<path d="M289.868 366.103C289.235 368.167 288.065 370.027 286.478 371.491C288.082 372.319 289.811 372.879 291.597 373.149C291.059 373.733 290.605 374.39 290.248 375.099C288.254 374.726 286.35 373.973 284.642 372.879C282.99 373.895 281.19 374.644 279.305 375.099C279.011 374.416 278.631 373.774 278.174 373.188C279.822 372.852 281.407 372.262 282.874 371.439C282.117 370.704 281.461 369.871 280.924 368.963C279.641 370.933 277.888 372.553 275.824 373.679C275.387 373.02 274.853 372.431 274.242 371.93C277.462 370.201 279.412 367.487 280.595 363.974H278.2C277.225 363.974 276.452 364.12 276.286 364.393C276.087 363.73 275.85 363.079 275.577 362.443C275.918 362.293 276.195 362.029 276.361 361.696C276.912 360.678 277.334 359.595 277.615 358.472L279.91 358.836C279.583 359.9 279.157 360.93 278.636 361.913H281.148C281.455 360.605 281.687 359.28 281.84 357.945L284.265 358.345C284.099 359.583 283.901 360.786 283.663 361.92H290.963V364H283.147C282.984 364.527 282.822 365.001 282.636 365.492H287.95L288.353 365.401L289.868 366.103ZM282.308 367.575C282.927 368.577 283.702 369.474 284.603 370.234C285.481 369.482 286.222 368.582 286.79 367.575H282.308ZM288.083 361.764C287.625 361.091 286.679 359.964 285.971 359.141L287.645 358.14C288.356 358.907 289.338 359.964 289.829 360.636L288.083 361.764Z" fill="#B3B6B7"/>
<path d="M303.121 371.475C300.862 372.125 298.422 372.749 296.546 373.276L296.13 371.202C296.858 371.056 297.755 370.838 298.698 370.601V366.321H296.748V364.325H298.698V361.121H296.475V359.125H302.868V361.146H300.791V364.325H302.484V366.311H300.791V370.061L302.848 369.515L303.121 371.475ZM310.989 373.149C311.461 373.149 311.571 372.622 311.639 370.253C312.156 370.607 312.728 370.872 313.333 371.036C313.131 373.877 312.822 374.715 310.983 374.715H309.654C308.142 374.715 307.561 374.28 307.561 372.73V370.581C306.573 372.548 304.977 374.143 303.011 375.131C302.638 374.56 302.185 374.046 301.665 373.604C306.29 371.15 306.8 367.575 306.8 364.754V361.878H308.802V364.803C308.81 366.044 308.658 367.28 308.347 368.482H309.53V372.486C309.53 372.98 309.657 373.136 310.06 373.136L310.989 373.149ZM305.5 368.55H303.462V358.898H312.273V368.55H310.125V360.75H305.5V368.55Z" fill="#B3B6B7"/>
<path d="M328.776 367.432C330.519 369.583 332.739 371.298 335.26 372.44C334.665 373 334.139 373.63 333.694 374.316C331.401 373.066 329.387 371.362 327.775 369.307V375.099H325.461V369.418C323.821 371.409 321.812 373.065 319.543 374.293C319.081 373.61 318.544 372.98 317.941 372.418C320.476 371.291 322.71 369.581 324.46 367.429H318.562V365.3H325.461V362.97H319.936V360.818H325.461V358.108H327.775V360.818H333.476V362.97H327.775V365.3H334.786V367.448L328.776 367.432Z" fill="#B3B6B7"/>
<path d="M350.919 368.049C352.596 370.034 354.709 371.605 357.094 372.638C356.521 373.186 356.014 373.798 355.582 374.462C353.266 373.239 351.236 371.538 349.628 369.47V375.05H347.334V369.525C345.702 371.557 343.669 373.23 341.36 374.439C340.922 373.775 340.408 373.165 339.83 372.619C342.224 371.594 344.354 370.038 346.06 368.069H340.34V365.996H343.782C343.471 364.894 343.011 363.84 342.417 362.863L344.292 362.151H341.198V360.077H347.334V358.091H349.628V360.077H355.93V362.151H352.904L355.001 362.771C354.423 363.88 353.785 364.957 353.09 365.996H356.619V368.069L350.919 368.049ZM344.363 362.131C345.02 363.113 345.54 364.179 345.91 365.3L344.181 365.976H347.331V362.131H344.363ZM349.625 362.131V365.976H352.683L351.156 365.446C351.769 364.389 352.287 363.28 352.703 362.131H349.625Z" fill="#B3B6B7"/>
<path d="M186.742 353.551H334.701" stroke="#B3B6B7" stroke-miterlimit="10"/>
<path d="M274.28 376.34H357.09" stroke="#B3B6B7" stroke-miterlimit="10"/>
<path d="M15.7529 464.74L373.539 438.266" stroke="#B3B6B7" stroke-linecap="round" stroke-linejoin="round"/>
<path d="M373.539 464.773L15.7529 438.295" stroke="#B3B6B7" stroke-linecap="round" stroke-linejoin="round"/>
<path d="M373.539 438.36L15.7529 411.882L373.539 411.853L15.7529 438.327V411.882L373.539 411.853" stroke="#B3B6B7" stroke-linecap="round" stroke-linejoin="round"/>
</svg>
